<svg width="41" height="26" viewBox="0 0 41 26" fill="none" xmlns="http://www.w3.org/2000/svg">
  <path
    d="M11.44 25.384C9.904 25.384 8.48533 25.1173 7.184 24.584C5.88267 24.0293 4.752 23.2507 3.792 22.248C2.85333 21.2453 2.11733 20.0507 1.584 18.664C1.05067 17.2773 0.784 15.7307 0.784 14.024C0.784 12.168 1.09333 10.44 1.712 8.84C2.352 7.21867 3.22667 5.81067 4.336 4.616C5.46667 3.4 6.77867 2.46133 8.272 1.8C9.76533 1.11733 11.376 0.775999 13.104 0.775999C14.768 0.775999 16.2293 1.064 17.488 1.64C18.7467 2.216 19.7813 2.952 20.592 3.848C21.424 4.744 22 5.672 22.32 6.632L20.368 7.528C19.8347 6.056 18.928 4.89333 17.648 4.04C16.3893 3.16533 14.8533 2.728 13.04 2.728C11.5467 2.728 10.1707 3.02667 8.912 3.624C7.67467 4.2 6.59733 5 5.68 6.024C4.784 7.048 4.09067 8.24267 3.6 9.608C3.10933 10.952 2.864 12.4133 2.864 13.992C2.864 15.9333 3.23733 17.608 3.984 19.016C4.752 20.424 5.78667 21.512 7.088 22.28C8.41067 23.0267 9.91467 23.4 11.6 23.4C13.264 23.4 14.7573 23.0373 16.08 22.312C17.424 21.5653 18.512 20.552 19.344 19.272C20.1973 17.992 20.7093 16.5413 20.88 14.92L21.008 13.8L21.808 14.792H12.176L12.368 12.936H23.12L22.96 14.728C22.832 16.2213 22.4587 17.6187 21.84 18.92C21.2213 20.2 20.4 21.3307 19.376 22.312C18.352 23.272 17.168 24.0293 15.824 24.584C14.48 25.1173 13.0187 25.384 11.44 25.384ZM32.1115 25.384C30.6822 25.384 29.4235 25.1067 28.3355 24.552C27.2475 23.9973 26.3942 23.2293 25.7755 22.248C25.1782 21.2453 24.8795 20.1147 24.8795 18.856C24.8795 17.7253 25.1142 16.6693 25.5835 15.688C26.0528 14.6853 26.7035 13.8213 27.5355 13.096C28.3675 12.3493 29.3275 11.8053 30.4155 11.464L30.4795 12.04C29.4982 11.592 28.7302 10.9627 28.1755 10.152C27.6422 9.32 27.3755 8.38133 27.3755 7.336C27.3755 6.12 27.6848 5.02133 28.3035 4.04C28.9435 3.03733 29.7968 2.248 30.8635 1.672C31.9515 1.07467 33.1568 0.775999 34.4795 0.775999C35.6528 0.775999 36.6875 1.01067 37.5835 1.48C38.4795 1.928 39.1728 2.55733 39.6635 3.368C40.1755 4.17867 40.4315 5.11733 40.4315 6.184C40.4315 7.08 40.2715 7.90133 39.9515 8.648C39.6315 9.39467 39.1622 10.056 38.5435 10.632C37.9462 11.208 37.2208 11.688 36.3675 12.072L36.3995 11.496C37.7008 11.9013 38.7248 12.6373 39.4715 13.704C40.2182 14.7707 40.5915 16.008 40.5915 17.416C40.5915 18.888 40.2182 20.232 39.4715 21.448C38.7248 22.6427 37.7115 23.6027 36.4315 24.328C35.1515 25.032 33.7115 25.384 32.1115 25.384ZM32.1115 23.528C33.3702 23.528 34.4795 23.272 35.4395 22.76C36.3995 22.2267 37.1462 21.5013 37.6795 20.584C38.2342 19.6667 38.5115 18.6213 38.5115 17.448C38.5115 16.0187 38.0422 14.888 37.1035 14.056C36.1862 13.2027 34.9382 12.776 33.3595 12.776C32.1008 12.776 30.9808 13.0427 29.9995 13.576C29.0395 14.088 28.2822 14.8027 27.7275 15.72C27.1942 16.6373 26.9275 17.672 26.9275 18.824C26.9275 20.2533 27.3968 21.3947 28.3355 22.248C29.2742 23.1013 30.5328 23.528 32.1115 23.528ZM33.4555 10.92C34.3728 10.92 35.2048 10.7173 35.9515 10.312C36.6982 9.88533 37.2848 9.32 37.7115 8.616C38.1595 7.912 38.3835 7.13333 38.3835 6.28C38.3835 5.17067 38.0102 4.28533 37.2635 3.624C36.5168 2.94133 35.5675 2.6 34.4155 2.6C33.4982 2.6 32.6662 2.81333 31.9195 3.24C31.1728 3.64533 30.5755 4.2 30.1275 4.904C29.6795 5.58667 29.4555 6.36533 29.4555 7.24C29.4555 8.328 29.8288 9.21333 30.5755 9.896C31.3222 10.5787 32.2822 10.92 33.4555 10.92Z"
    fill="white" />
</svg>